<mxfile host="app.diagrams.net">
  <diagram name="URL Shortener Microservices Concept Map" id="1">
    <mxGraphModel dx="1000" dy="1000" grid="1" gridSize="10" guides="1" tooltips="1" connect="1" arrows="1" fold="1" page="1" pageScale="1" pageWidth="827" pageHeight="1169" math="0" shadow="0">
      <root>
        <mxCell id="0"/>
        <mxCell id="1" parent="0"/>
        <!-- Central Node -->
        <mxCell id="2" value="Microservices Architecture (URL Shortener)" style="ellipse;whiteSpace=wrap;html=1;fillColor=#4F8EF7;fontSize=18;fontColor=#fff;strokeColor=#2C3E50;" vertex="1" parent="1">
          <mxGeometry x="300" y="100" width="250" height="60" as="geometry"/>
        </mxCell>
        <!-- Domain Context -->
        <mxCell id="3" value="URL Shortener Domain<br>Generates, manages, and tracks shortened URLs" style="rounded=1;whiteSpace=wrap;html=1;fillColor=#9B59B6;fontColor=#fff;strokeColor=#6C3483;" vertex="1" parent="1">
          <mxGeometry x="320" y="20" width="210" height="60" as="geometry"/>
        </mxCell>
        <!-- Key Principles -->
        <mxCell id="4" value="Key Principles" style="rounded=1;whiteSpace=wrap;html=1;fillColor=#27AE60;fontColor=#fff;strokeColor=#196F3D;fontSize=16;" vertex="1" parent="1">
          <mxGeometry x="40" y="100" width="140" height="50" as="geometry"/>
        </mxCell>
        <mxCell id="5" value="Scalability<br>Handle millions of redirects and analytics events" style="rounded=1;whiteSpace=wrap;html=1;fillColor=#ABEBC6;" vertex="1" parent="1">
          <mxGeometry x="20" y="180" width="180" height="60" as="geometry"/>
        </mxCell>
        <mxCell id="6" value="Loose Coupling<br>Independent services for creation, redirection, analytics" style="rounded=1;whiteSpace=wrap;html=1;fillColor=#ABEBC6;" vertex="1" parent="1">
          <mxGeometry x="20" y="260" width="180" height="60" as="geometry"/>
        </mxCell>
        <mxCell id="7" value="Decentralized Data Management<br>Each service owns its data" style="rounded=1;whiteSpace=wrap;html=1;fillColor=#ABEBC6;" vertex="1" parent="1">
          <mxGeometry x="20" y="340" width="180" height="60" as="geometry"/>
        </mxCell>
        <mxCell id="8" value="Resilience<br>System works even if one service fails" style="rounded=1;whiteSpace=wrap;html=1;fillColor=#ABEBC6;" vertex="1" parent="1">
          <mxGeometry x="20" y="420" width="180" height="60" as="geometry"/>
        </mxCell>
        <!-- Core Characteristics -->
        <mxCell id="9" value="Core Characteristics" style="rounded=1;whiteSpace=wrap;html=1;fillColor=#F39C12;fontColor=#fff;strokeColor=#B9770E;fontSize=16;" vertex="1" parent="1">
          <mxGeometry x="650" y="100" width="180" height="50" as="geometry"/>
        </mxCell>
        <mxCell id="10" value="Autonomy<br>Redirection can be updated without affecting Analytics" style="rounded=1;whiteSpace=wrap;html=1;fillColor=#FDEBD0;" vertex="1" parent="1">
          <mxGeometry x="700" y="180" width="200" height="60" as="geometry"/>
        </mxCell>
        <mxCell id="11" value="Fault Isolation<br>Analytics failure doesn't impact URL creation" style="rounded=1;whiteSpace=wrap;html=1;fillColor=#FDEBD0;" vertex="1" parent="1">
          <mxGeometry x="700" y="260" width="200" height="60" as="geometry"/>
        </mxCell>
        <mxCell id="12" value="Continuous Delivery<br>Deploy new features independently" style="rounded=1;whiteSpace=wrap;html=1;fillColor=#FDEBD0;" vertex="1" parent="1">
          <mxGeometry x="700" y="340" width="200" height="60" as="geometry"/>
        </mxCell>
        <mxCell id="13" value="Technology Diversity<br>Node.js for API, Go for redirection" style="rounded=1;whiteSpace=wrap;html=1;fillColor=#FDEBD0;" vertex="1" parent="1">
          <mxGeometry x="700" y="420" width="200" height="60" as="geometry"/>
        </mxCell>
        <!-- Common Challenges -->
        <mxCell id="14" value="Common Challenges" style="rounded=1;whiteSpace=wrap;html=1;fillColor=#E74C3C;fontColor=#fff;strokeColor=#922B21;fontSize=16;" vertex="1" parent="1">
          <mxGeometry x="40" y="600" width="180" height="50" as="geometry"/>
        </mxCell>
        <mxCell id="15" value="Data Consistency<br>Short URL and analytics in sync" style="rounded=1;whiteSpace=wrap;html=1;fillColor=#F5B7B1;" vertex="1" parent="1">
          <mxGeometry x="20" y="680" width="200" height="60" as="geometry"/>
        </mxCell>
        <mxCell id="16" value="Service Discovery<br>Finding the right service" style="rounded=1;whiteSpace=wrap;html=1;fillColor=#F5B7B1;" vertex="1" parent="1">
          <mxGeometry x="20" y="760" width="200" height="60" as="geometry"/>
        </mxCell>
        <mxCell id="17" value="Distributed Transactions<br>Atomicity for creation and logging" style="rounded=1;whiteSpace=wrap;html=1;fillColor=#F5B7B1;" vertex="1" parent="1">
          <mxGeometry x="20" y="840" width="200" height="60" as="geometry"/>
        </mxCell>
        <mxCell id="18" value="Monitoring & Logging<br>Tracking failures" style="rounded=1;whiteSpace=wrap;html=1;fillColor=#F5B7B1;" vertex="1" parent="1">
          <mxGeometry x="20" y="920" width="200" height="60" as="geometry"/>
        </mxCell>
        <!-- DDD Elements -->
        <mxCell id="19" value="DDD Elements" style="rounded=1;whiteSpace=wrap;html=1;fillColor=#16A085;fontColor=#fff;strokeColor=#117864;fontSize=16;" vertex="1" parent="1">
          <mxGeometry x="650" y="600" width="180" height="50" as="geometry"/>
        </mxCell>
        <mxCell id="20" value="Bounded Contexts<br>URL Management, User Management, Analytics" style="rounded=1;whiteSpace=wrap;html=1;fillColor=#A3E4D7;" vertex="1" parent="1">
          <mxGeometry x="700" y="680" width="220" height="60" as="geometry"/>
        </mxCell>
        <mxCell id="21" value="Aggregates<br>ShortURL aggregate: original URL, code, owner" style="rounded=1;whiteSpace=wrap;html=1;fillColor=#A3E4D7;" vertex="1" parent="1">
          <mxGeometry x="700" y="760" width="220" height="60" as="geometry"/>
        </mxCell>
        <mxCell id="22" value="Entities<br>User, ShortURL, AnalyticsEvent" style="rounded=1;whiteSpace=wrap;html=1;fillColor=#A3E4D7;" vertex="1" parent="1">
          <mxGeometry x="700" y="840" width="220" height="60" as="geometry"/>
        </mxCell>
        <mxCell id="23" value="Value Objects<br>ShortCode, ExpiryDate" style="rounded=1;whiteSpace=wrap;html=1;fillColor=#A3E4D7;" vertex="1" parent="1">
          <mxGeometry x="700" y="920" width="220" height="60" as="geometry"/>
        </mxCell>
        <!-- Example Microservices -->
        <mxCell id="24" value="Example Microservices" style="rounded=1;whiteSpace=wrap;html=1;fillColor=#2980B9;fontColor=#fff;strokeColor=#154360;fontSize=16;" vertex="1" parent="1">
          <mxGeometry x="340" y="600" width="220" height="50" as="geometry"/>
        </mxCell>
        <mxCell id="25" value="URL Management Service" style="rounded=1;whiteSpace=wrap;html=1;fillColor=#D6EAF8;" vertex="1" parent="1">
          <mxGeometry x="360" y="680" width="180" height="50" as="geometry"/>
        </mxCell>
        <mxCell id="26" value="Redirection Service" style="rounded=1;whiteSpace=wrap;html=1;fillColor=#D6EAF8;" vertex="1" parent="1">
          <mxGeometry x="360" y="760" width="180" height="50" as="geometry"/>
        </mxCell>
        <mxCell id="27" value="Analytics Service" style="rounded=1;whiteSpace=wrap;html=1;fillColor=#D6EAF8;" vertex="1" parent="1">
          <mxGeometry x="360" y="840" width="180" height="50" as="geometry"/>
        </mxCell>
        <mxCell id="28" value="User Management Service" style="rounded=1;whiteSpace=wrap;html=1;fillColor=#D6EAF8;" vertex="1" parent="1">
          <mxGeometry x="360" y="920" width="180" height="50" as="geometry"/>
        </mxCell>
        <!-- Edges -->
        <mxCell id="29" style="edgeStyle=orthogonalEdgeStyle;rounded=0;orthogonalLoop=1;jettySize=auto;html=1;strokeColor=#4F8EF7;" edge="1" parent="1" source="2" target="3">
          <mxGeometry relative="1" as="geometry"/>
        </mxCell>
        <mxCell id="30" style="edgeStyle=orthogonalEdgeStyle;rounded=0;orthogonalLoop=1;jettySize=auto;html=1;strokeColor=#27AE60;" edge="1" parent="1" source="2" target="4">
          <mxGeometry relative="1" as="geometry"/>
        </mxCell>
        <mxCell id="31" style="edgeStyle=orthogonalEdgeStyle;rounded=0;orthogonalLoop=1;jettySize=auto;html=1;strokeColor=#F39C12;" edge="1" parent="1" source="2" target="9">
          <mxGeometry relative="1" as="geometry"/>
        </mxCell>
        <mxCell id="32" style="edgeStyle=orthogonalEdgeStyle;rounded=0;orthogonalLoop=1;jettySize=auto;html=1;strokeColor=#E74C3C;" edge="1" parent="1" source="2" target="14">
          <mxGeometry relative="1" as="geometry"/>
        </mxCell>
        <mxCell id="33" style="edgeStyle=orthogonalEdgeStyle;rounded=0;orthogonalLoop=1;jettySize=auto;html=1;strokeColor=#16A085;" edge="1" parent="1" source="2" target="19">
          <mxGeometry relative="1" as="geometry"/>
        </mxCell>
        <mxCell id="34" style="edgeStyle=orthogonalEdgeStyle;rounded=0;orthogonalLoop=1;jettySize=auto;html=1;strokeColor=#2980B9;" edge="1" parent="1" source="2" target="24">
          <mxGeometry relative="1" as="geometry"/>
        </mxCell>
        <!-- Microservices interconnections -->
        <mxCell id="35" style="edgeStyle=orthogonalEdgeStyle;rounded=0;orthogonalLoop=1;jettySize=auto;html=1;strokeColor=#2980B9;" edge="1" parent="1" source="25" target="26">
          <mxGeometry relative="1" as="geometry"/>
        </mxCell>
        <mxCell id="36" style="edgeStyle=orthogonalEdgeStyle;rounded=0;orthogonalLoop=1;jettySize=auto;html=1;strokeColor=#2980B9;" edge="1" parent="1" source="26" target="27">
          <mxGeometry relative="1" as="geometry"/>
        </mxCell>
        <mxCell id="37" style="edgeStyle=orthogonalEdgeStyle;rounded=0;orthogonalLoop=1;jettySize=auto;html=1;strokeColor=#2980B9;" edge="1" parent="1" source="25" target="28">
          <mxGeometry relative="1" as="geometry"/>
        </mxCell>
        <mxCell id="38" style="edgeStyle=orthogonalEdgeStyle;rounded=0;orthogonalLoop=1;jettySize=auto;html=1;strokeColor=#2980B9;" edge="1" parent="1" source="27" target="28">
          <mxGeometry relative="1" as="geometry"/>
        </mxCell>
        <!-- DDD to Microservices -->
        <mxCell id="39" style="edgeStyle=orthogonalEdgeStyle;rounded=0;orthogonalLoop=1;jettySize=auto;html=1;dashed=1;strokeColor=#16A085;" edge="1" parent="1" source="20" target="25">
          <mxGeometry relative="1" as="geometry"/>
        </mxCell>
        <mxCell id="40" style="edgeStyle=orthogonalEdgeStyle;rounded=0;orthogonalLoop=1;jettySize=auto;html=1;dashed=1;strokeColor=#16A085;" edge="1" parent="1" source="20" target="26">
          <mxGeometry relative="1" as="geometry"/>
        </mxCell>
        <mxCell id="41" style="edgeStyle=orthogonalEdgeStyle;rounded=0;orthogonalLoop=1;jettySize=auto;html=1;dashed=1;strokeColor=#16A085;" edge="1" parent="1" source="20" target="27">
          <mxGeometry relative="1" as="geometry"/>
        </mxCell>
        <mxCell id="42" style="edgeStyle=orthogonalEdgeStyle;rounded=0;orthogonalLoop=1;jettySize=auto;html=1;dashed=1;strokeColor=#16A085;" edge="1" parent="1" source="20" target="28">
          <mxGeometry relative="1" as="geometry"/>
        </mxCell>
        <!-- Challenges to Microservices -->
        <mxCell id="43" style="edgeStyle=orthogonalEdgeStyle;rounded=0;orthogonalLoop=1;jettySize=auto;html=1;dashed=1;strokeColor=#E74C3C;" edge="1" parent="1" source="15" target="25">
          <mxGeometry relative="1" as="geometry"/>
        </mxCell>
        <mxCell id="44" style="edgeStyle=orthogonalEdgeStyle;rounded=0;orthogonalLoop=1;jettySize=auto;html=1;dashed=1;strokeColor=#E74C3C;" edge="1" parent="1" source="15" target="27">
          <mxGeometry relative="1" as="geometry"/>
        </mxCell>
        <mxCell id="45" style="edgeStyle=orthogonalEdgeStyle;rounded=0;orthogonalLoop=1;jettySize=auto;html=1;dashed=1;strokeColor=#E74C3C;" edge="1" parent="1" source="16" target="26">
          <mxGeometry relative="1" as="geometry"/>
        </mxCell>
        <mxCell id="46" style="edgeStyle=orthogonalEdgeStyle;rounded=0;orthogonalLoop=1;jettySize=auto;html=1;dashed=1;strokeColor=#E74C3C;" edge="1" parent="1" source="17" target="25">
          <mxGeometry relative="1" as="geometry"/>
        </mxCell>
        <mxCell id="47" style="edgeStyle=orthogonalEdgeStyle;rounded=0;orthogonalLoop=1;jettySize=auto;html=1;dashed=1;strokeColor=#E74C3C;" edge="1" parent="1" source="17" target="27">
          <mxGeometry relative="1" as="geometry"/>
        </mxCell>
        <mxCell id="48" style="edgeStyle=orthogonalEdgeStyle;rounded=0;orthogonalLoop=1;jettySize=auto;html=1;dashed=1;strokeColor=#E74C3C;" edge="1" parent="1" source="18" target="27">
          <mxGeometry relative="1" as="geometry"/>
        </mxCell>
      </root>
    </mxGraphModel>
  </diagram>
</mxfile> 